<?xml version="1.0" encoding="UTF-8"?>
<svg xmlns="http://www.w3.org/2000/svg" xmlns:xlink="http://www.w3.org/1999/xlink" width="0" height="0">
<symbol id="image_6" width="18" height="18" viewBox="0 0 18 18" fill="none">
<path d="M10.6871 1.5H6.37047C6.23586 1.5 6.16855 1.5 6.10913 1.5205C6.05658 1.53862 6.00872 1.5682 5.96901 1.60709C5.92411 1.65107 5.89401 1.71127 5.83381 1.83167L2.68381 8.13167C2.54005 8.41919 2.46817 8.56295 2.48543 8.67981C2.50051 8.78185 2.55695 8.87318 2.64148 8.9323C2.73828 9 2.89901 9 3.22046 9H7.87465L5.62464 16.5L14.7695 7.01648C15.078 6.69653 15.2323 6.53655 15.2413 6.39966C15.2491 6.28084 15.2 6.16536 15.1091 6.08852C15.0043 6 14.782 6 14.3376 6H8.99965L10.6871 1.5Z" stroke-width="1.5" stroke-linecap="round" stroke-linejoin="round"/>
</symbol>
<symbol id="image_7" width="18" height="18" viewBox="0 0 18 18" fill="none">
<g clip-path="url(#clip0_276_836)">
<path d="M8.99999 15.3542C9.79613 16.0667 10.8475 16.5 12 16.5C14.4853 16.5 16.5 14.4853 16.5 12C16.5 9.92481 15.0953 8.17769 13.1849 7.65763M4.81513 7.65762C2.9047 8.17768 1.5 9.9248 1.5 12C1.5 14.4853 3.51472 16.5 6 16.5C8.48528 16.5 10.5 14.4853 10.5 12C10.5 11.4146 10.3882 10.8554 10.1849 10.3424M13.5 6C13.5 8.48528 11.4853 10.5 9 10.5C6.51472 10.5 4.5 8.48528 4.5 6C4.5 3.51472 6.51472 1.5 9 1.5C11.4853 1.5 13.5 3.51472 13.5 6Z"  stroke-width="1.5" stroke-linecap="round" stroke-linejoin="round"/>
</g>
<defs>
<clipPath>
<rect width="18" height="18"/>
</clipPath>
</defs>
</symbol>
<symbol id="image_8" width="18" height="18" viewBox="0 0 18 18" fill="none">
<path d="M8.41723 1.8237C8.62993 1.70553 8.73628 1.64645 8.84891 1.62329C8.94859 1.60278 9.05141 1.60278 9.15109 1.62329C9.26372 1.64645 9.37007 1.70553 9.58277 1.8237L15.1328 4.90704C15.3574 5.03184 15.4697 5.09424 15.5515 5.18299C15.6239 5.26151 15.6786 5.35457 15.7121 5.45595C15.75 5.57055 15.75 5.69904 15.75 5.95603V12.0439C15.75 12.3008 15.75 12.4293 15.7121 12.5439C15.6786 12.6453 15.6239 12.7384 15.5515 12.8169C15.4697 12.9056 15.3574 12.968 15.1328 13.0928L9.58277 16.1762C9.37007 16.2943 9.26372 16.3534 9.15109 16.3766C9.05141 16.3971 8.94859 16.3971 8.84891 16.3766C8.73628 16.3534 8.62993 16.2943 8.41723 16.1762L2.86723 13.0928C2.64259 12.968 2.53026 12.9056 2.44847 12.8169C2.37612 12.7384 2.32136 12.6453 2.28786 12.5439C2.25 12.4293 2.25 12.3008 2.25 12.0439V5.95602C2.25 5.69904 2.25 5.57055 2.28786 5.45595C2.32136 5.35457 2.37612 5.26151 2.44847 5.18299C2.53026 5.09424 2.64259 5.03184 2.86723 4.90704L8.41723 1.8237Z" stroke-width="1.5" stroke-linecap="round" stroke-linejoin="round"/>
</symbol>
<symbol id="image_1" width="18" height="18" viewBox="0 0 18 18" fill="none">
<path d="M2.47276 3.92535C2.64182 3.20459 3.2046 2.64182 3.92535 2.47276V2.47276C4.54997 2.32624 5.20003 2.32624 5.82465 2.47276V2.47276C6.54541 2.64182 7.10818 3.20459 7.27724 3.92535V3.92535C7.42376 4.54997 7.42376 5.20003 7.27724 5.82465V5.82465C7.10818 6.54541 6.54541 7.10818 5.82465 7.27724V7.27724C5.20003 7.42376 4.54997 7.42376 3.92535 7.27724V7.27724C3.2046 7.10818 2.64182 6.54541 2.47276 5.82465V5.82465C2.32624 5.20003 2.32624 4.54997 2.47276 3.92535V3.92535Z"  stroke-width="1.5"/>
<path d="M2.47276 12.1753C2.64182 11.4546 3.2046 10.8918 3.92535 10.7228V10.7228C4.54997 10.5762 5.20003 10.5762 5.82465 10.7228V10.7228C6.54541 10.8918 7.10818 11.4546 7.27724 12.1753V12.1753C7.42376 12.8 7.42376 13.45 7.27724 14.0747V14.0747C7.10818 14.7954 6.54541 15.3582 5.82465 15.5272V15.5272C5.20003 15.6738 4.54997 15.6738 3.92535 15.5272V15.5272C3.2046 15.3582 2.64182 14.7954 2.47276 14.0747V14.0747C2.32624 13.45 2.32624 12.8 2.47276 12.1753V12.1753Z"  stroke-width="1.5"/>
<path d="M10.7228 3.92535C10.8918 3.20459 11.4546 2.64182 12.1753 2.47276V2.47276C12.8 2.32624 13.45 2.32624 14.0747 2.47276V2.47276C14.7954 2.64182 15.3582 3.20459 15.5272 3.92535V3.92535C15.6738 4.54997 15.6738 5.20003 15.5272 5.82465V5.82465C15.3582 6.54541 14.7954 7.10818 14.0747 7.27724V7.27724C13.45 7.42376 12.8 7.42376 12.1753 7.27724V7.27724C11.4546 7.10818 10.8918 6.54541 10.7228 5.82465V5.82465C10.5762 5.20003 10.5762 4.54997 10.7228 3.92535V3.92535Z"  stroke-width="1.5"/>
<path d="M10.7228 12.1753C10.8918 11.4546 11.4546 10.8918 12.1753 10.7228V10.7228C12.8 10.5762 13.45 10.5762 14.0747 10.7228V10.7228C14.7954 10.8918 15.3582 11.4546 15.5272 12.1753V12.1753C15.6738 12.8 15.6738 13.45 15.5272 14.0747V14.0747C15.3582 14.7954 14.7954 15.3582 14.0747 15.5272V15.5272C13.45 15.6738 12.8 15.6738 12.1753 15.5272V15.5272C11.4546 15.3582 10.8918 14.7954 10.7228 14.0747V14.0747C10.5762 13.45 10.5762 12.8 10.7228 12.1753V12.1753Z" stroke-width="1.5"/>
</symbol>
<symbol id="image_2" width="18" height="18" viewBox="0 0 18 18" fill="none">
<g clip-path="url(#clip0_276_832)">
<path d="M9 1.5L10.509 5.42331C10.7205 5.97324 10.8262 6.2482 10.9907 6.47948C11.1364 6.68446 11.3155 6.86356 11.5205 7.00931C11.7518 7.17377 12.0268 7.27952 12.5767 7.49103L16.5 9L12.5767 10.509C12.0268 10.7205 11.7518 10.8262 11.5205 10.9907C11.3155 11.1364 11.1364 11.3155 10.9907 11.5205C10.8262 11.7518 10.7205 12.0268 10.509 12.5767L9 16.5L7.49103 12.5767C7.27952 12.0268 7.17377 11.7518 7.00931 11.5205C6.86356 11.3155 6.68446 11.1364 6.47948 10.9907C6.2482 10.8262 5.97324 10.7205 5.42331 10.509L1.5 9L5.42331 7.49103C5.97323 7.27952 6.2482 7.17377 6.47948 7.00931C6.68446 6.86356 6.86356 6.68446 7.00931 6.47948C7.17377 6.2482 7.27952 5.97324 7.49103 5.42331L9 1.5Z"  stroke-width="1.5" stroke-linecap="round" stroke-linejoin="round"/>
</g>
<defs>
<clipPath>
<rect width="18" height="18"/>
</clipPath>
</defs>
</symbol>
<symbol id="image_3" width="18" height="18" viewBox="0 0 18 18" fill="none">
<g clip-path="url(#clip0_276_833)">
<path d="M2.50519 12.7498C1.56607 11.1224 2.04355 9.04833 3.59847 7.99505L3.60013 7.99338C4.84923 7.14926 6.49331 7.17759 7.71325 8.06421L10.2873 9.93578C11.5064 10.8224 13.1505 10.8507 14.4004 10.0066L14.4021 10.0049C15.9578 8.95166 16.4361 6.87594 15.4953 5.25019M12.7515 15.4945C11.1241 16.4336 9.04999 15.9561 7.99671 14.4012L7.99505 14.3995C7.15093 13.1504 7.17926 11.5063 8.06588 10.2864L9.93744 7.71238C10.8241 6.49327 10.8524 4.84919 10.0083 3.59926L10.0049 3.59759C8.95166 2.04351 6.87594 1.56437 5.25019 2.50515M14.3029 3.69676C17.2319 6.62577 17.2319 11.3739 14.3029 14.3029C11.3739 17.2319 6.62577 17.2319 3.69676 14.3029C0.767747 11.3739 0.767747 6.62577 3.69676 3.69676C6.62577 0.767747 11.3739 0.767747 14.3029 3.69676Z"  stroke-width="1.5" stroke-linecap="round" stroke-linejoin="round"/>
</g>
<defs>
<clipPath>
<rect width="18" height="18"/>
</clipPath>
</defs>
</symbol>
<symbol id="image_4" width="18" height="18" viewBox="0 0 18 18" fill="none">
<g clip-path="url(#clip0_276_820)">
<path d="M9 1.5L11.7 4.2C13.5 -0.525 18.525 4.5 13.8 6.3L16.5 9L13.8 11.7C12 6.975 6.975 12 11.7 13.8L9 16.5L6.3 13.8C4.5 18.525 -0.525 13.5 4.2 11.7L1.5 9L4.2 6.3C6 11.025 11.025 6 6.3 4.2L9 1.5Z"  stroke-width="1.5" stroke-linecap="round" stroke-linejoin="round"/>
</g>
<defs>
<clipPath>
<rect width="18" height="18" fill="none"/>
</clipPath>
</defs>
</symbol>
<symbol id="image_5" width="18" height="18" viewBox="0 0 18 18" fill="none">
<path d="M15.375 5.45825L8.99998 8.99992M8.99998 8.99992L2.62498 5.45825M8.99998 8.99992L9 16.1249M15.75 12.0439V5.95603C15.75 5.69904 15.75 5.57055 15.7121 5.45595C15.6786 5.35457 15.6239 5.26151 15.5515 5.18299C15.4697 5.09424 15.3574 5.03184 15.1328 4.90704L9.58277 1.8237C9.37007 1.70553 9.26372 1.64645 9.15109 1.62329C9.05141 1.60278 8.9486 1.60278 8.84891 1.62329C8.73628 1.64645 8.62993 1.70553 8.41723 1.8237L2.86723 4.90704C2.64259 5.03184 2.53026 5.09424 2.44847 5.18299C2.37612 5.26151 2.32136 5.35457 2.28786 5.45595C2.25 5.57055 2.25 5.69904 2.25 5.95603V12.0439C2.25 12.3008 2.25 12.4293 2.28786 12.5439C2.32136 12.6453 2.37612 12.7384 2.44847 12.8169C2.53026 12.9056 2.64259 12.968 2.86723 13.0928L8.41723 16.1762C8.62993 16.2943 8.73628 16.3534 8.84891 16.3766C8.9486 16.3971 9.05141 16.3971 9.15109 16.3766C9.26372 16.3534 9.37007 16.2943 9.58277 16.1762L15.1328 13.0928C15.3574 12.968 15.4697 12.9056 15.5515 12.8169C15.6239 12.7384 15.6786 12.6453 15.7121 12.5439C15.75 12.4293 15.75 12.3008 15.75 12.0439Z" stroke-width="1.5" stroke-linecap="round" stroke-linejoin="round"/>
</symbol>
<symbol id="imageBackground_0" width="16" height="16" viewBox="0 0 16 16" fill="none" >
<path d="M12.6664 14H13.34C13.9875 14 14.3112 14 14.4896 13.865C14.6451 13.7474 14.7413 13.5677 14.7529 13.3731C14.7662 13.1497 14.5867 12.8804 14.2275 12.3417L12.2206 9.33128C11.9239 8.88616 11.7755 8.66359 11.5885 8.58604C11.425 8.51823 11.2412 8.51823 11.0777 8.58604C10.8907 8.66359 10.7423 8.88616 10.4456 9.33128L9.94945 10.0755M12.6664 14L7.54344 6.60012C7.24881 6.17455 7.1015 5.96176 6.91748 5.88696C6.75651 5.82152 6.57635 5.82152 6.41538 5.88696C6.23137 5.96176 6.08405 6.17455 5.78943 6.60012L1.82523 12.3262C1.44988 12.8684 1.26221 13.1394 1.27289 13.3649C1.2822 13.5612 1.37768 13.7435 1.53382 13.8629C1.7131 14 2.04281 14 2.70224 14H12.6664ZM13.9998 4C13.9998 5.10457 13.1043 6 11.9998 6C10.8952 6 9.99976 5.10457 9.99976 4C9.99976 2.89543 10.8952 2 11.9998 2C13.1043 2 13.9998 2.89543 13.9998 4Z" stroke-opacity="0.1" stroke-linecap="round" stroke-linejoin="round"/>
</symbol>
<symbol id="closeButton" width="18" height="18" viewBox="0 0 18 18" >
<path d="M13.5 4.5L4.5 13.5"  stroke-width="1.5" stroke-linecap="round" stroke-linejoin="round"/>
<path d="M4.5 4.5L13.5 13.5"  stroke-width="1.5" stroke-linecap="round" stroke-linejoin="round"/>
</symbol>
<symbol id="plus" width="14" height="14" viewBox="0 0 14 14">
<path d="M7 2.9165V11.0832"  stroke-linecap="round" stroke-linejoin="round"/>
<path d="M2.91663 7H11.0833"  stroke-linecap="round" stroke-linejoin="round"/>
</symbol>
</svg>